<?xml version="1.0" encoding="UTF-8" standalone="no"?>
<!-- Created with Inkscape (http://www.inkscape.org/) -->

<svg
   version="1.1"
   id="svg2"
   width="325.89334"
   height="491.51999"
   viewBox="0 0 325.89334 491.51999"
   sodipodi:docname="33_Tasks.eps"
   xmlns:inkscape="http://www.inkscape.org/namespaces/inkscape"
   xmlns:sodipodi="http://sodipodi.sourceforge.net/DTD/sodipodi-0.dtd"
   xmlns="http://www.w3.org/2000/svg"
   xmlns:svg="http://www.w3.org/2000/svg">
  <defs
     id="defs6" />
  <sodipodi:namedview
     id="namedview4"
     pagecolor="#ffffff"
     bordercolor="#000000"
     borderopacity="0.25"
     inkscape:showpageshadow="2"
     inkscape:pageopacity="0.0"
     inkscape:pagecheckerboard="0"
     inkscape:deskcolor="#d1d1d1" />
  <g
     id="g8"
     inkscape:groupmode="layer"
     inkscape:label="ink_ext_XXXXXX"
     transform="matrix(1.3333333,0,0,-1.3333333,0,491.52)">
    <g
       id="g10"
       transform="scale(0.1)">
      <path
         d="M 38.3984,3505.41 H 773.102 c 21.203,0 38.398,-17.2 38.398,-38.4 v -107.14 h 821.16 v 107.14 c 0,21.2 17.2,38.4 38.4,38.4 h 734.7 c 21.21,0 38.41,-17.2 38.41,-38.4 V 38.4063 C 2444.17,17.1953 2426.97,0 2405.76,0 H 38.3984 C 17.1914,0 0,17.1953 0,38.4063 V 3467.01 c 0,21.2 17.1914,38.4 38.3984,38.4 z m 696.2966,-76.8 H 76.8008 V 76.8047 H 2367.36 V 3428.61 h -657.9 v -107.14 c 0,-21.2 -17.19,-38.4 -38.4,-38.4 H 773.102 c -21.207,0 -38.407,17.2 -38.407,38.4 v 107.14"
         style="fill:#000000;fill-opacity:1;fill-rule:nonzero;stroke:none"
         id="path12" />
      <path
         d="m 773.102,3686.41 h 897.958 c 21.21,0 38.4,-17.2 38.4,-38.4 v -326.54 c 0,-21.2 -17.19,-38.4 -38.4,-38.4 H 773.102 c -21.207,0 -38.407,17.2 -38.407,38.4 v 326.54 c 0,21.2 17.2,38.4 38.407,38.4 z m 859.558,-76.8 H 811.5 v -249.74 h 821.16 v 249.74"
         style="fill:#000000;fill-opacity:1;fill-rule:nonzero;stroke:none"
         id="path14" />
      <path
         d="m 324.117,3056.43 h 326.531 c 21.207,0 38.403,-17.2 38.403,-38.4 v -326.54 c 0,-21.21 -17.196,-38.4 -38.403,-38.4 H 324.117 c -21.207,0 -38.406,17.19 -38.406,38.4 v 326.54 c 0,21.2 17.199,38.4 38.406,38.4 z m 288.133,-76.8 H 362.516 V 2729.89 H 612.25 v 249.74"
         style="fill:#000000;fill-opacity:1;fill-rule:nonzero;stroke:none"
         id="path16" />
      <path
         d="M 895.547,2893.16 H 2120.05 v -76.8 H 895.547 v 76.8"
         style="fill:#000000;fill-opacity:1;fill-rule:nonzero;stroke:none"
         id="path18" />
      <path
         d="m 324.117,2321.72 h 326.531 c 21.207,0 38.403,-17.19 38.403,-38.4 v -326.53 c 0,-21.21 -17.196,-38.4 -38.403,-38.4 H 324.117 c -21.207,0 -38.406,17.19 -38.406,38.4 v 326.53 c 0,21.21 17.199,38.4 38.406,38.4 z m 288.133,-76.8 H 362.516 V 1995.19 H 612.25 v 249.73"
         style="fill:#000000;fill-opacity:1;fill-rule:nonzero;stroke:none"
         id="path20" />
      <path
         d="M 895.547,2158.46 H 2120.05 v -76.8 H 895.547 v 76.8"
         style="fill:#000000;fill-opacity:1;fill-rule:nonzero;stroke:none"
         id="path22" />
      <path
         d="m 324.117,1587.02 h 326.531 c 21.207,0 38.403,-17.18 38.403,-38.39 v -326.54 c 0,-21.21 -17.196,-38.41 -38.403,-38.41 H 324.117 c -21.207,0 -38.406,17.2 -38.406,38.41 v 326.54 c 0,21.21 17.199,38.39 38.406,38.39 z m 288.133,-76.8 H 362.516 V 1260.49 H 612.25 v 249.73"
         style="fill:#000000;fill-opacity:1;fill-rule:nonzero;stroke:none"
         id="path24" />
      <path
         d="M 895.547,1423.76 H 2120.05 v -76.81 H 895.547 v 76.81"
         style="fill:#000000;fill-opacity:1;fill-rule:nonzero;stroke:none"
         id="path26" />
      <path
         d="m 324.117,852.324 h 326.531 c 21.207,0 38.403,-17.199 38.403,-38.398 V 487.391 c 0,-21.211 -17.196,-38.407 -38.403,-38.407 H 324.117 c -21.207,0 -38.406,17.196 -38.406,38.407 v 326.535 c 0,21.199 17.199,38.398 38.406,38.398 z M 612.25,775.527 H 362.516 V 525.793 H 612.25 v 249.734"
         style="fill:#000000;fill-opacity:1;fill-rule:nonzero;stroke:none"
         id="path28" />
      <path
         d="M 895.547,689.051 H 2120.05 V 612.254 H 895.547 v 76.797"
         style="fill:#000000;fill-opacity:1;fill-rule:nonzero;stroke:none"
         id="path30" />
    </g>
  </g>
</svg>
